<?xml version="1.0" encoding="UTF-8" standalone="no"?>
<svg
   xmlns:dc="http://purl.org/dc/elements/1.1/"
   xmlns:cc="http://creativecommons.org/ns#"
   xmlns:rdf="http://www.w3.org/1999/02/22-rdf-syntax-ns#"
   xmlns:svg="http://www.w3.org/2000/svg"
   xmlns="http://www.w3.org/2000/svg"
   id="svg8"
   version="1.1"
   viewBox="-5 15 200 50"
   height="50mm"
   width="200mm">
  <defs
     id="defs2" />
  <metadata
     id="metadata5">
    <rdf:RDF>
      <cc:Work
         rdf:about="">
        <dc:format>image/svg+xml</dc:format>
        <dc:type
           rdf:resource="http://purl.org/dc/dcmitype/StillImage" />
        <dc:title></dc:title>
      </cc:Work>
    </rdf:RDF>
  </metadata>
  <g
     transform="translate(-52.720994,-147.73793)"
     id="layer1">
    <g
       id="g888">
      <g
         id="g948"
         transform="matrix(0.85157889,0,0,0.85157889,52.967187,112.15263)">
        <g
           id="g938"
           transform="matrix(0.35277778,0,0,0.35277778,-24.654383,37.029649)">
          <path
             id="path932"
             d="M 132.30859,177.12109 H 70.550781 l 30.878909,-66.80468 z m -56.296871,-3.47265 h 50.835941 l -25.41797,-55.06641 z m 0,0"
             style="fill:#000000;fill-opacity:1;fill-rule:nonzero;stroke:none" />
          <path
             id="path934"
             d="m 171.03906,134.09375 -6.02344,-22.36719 h 38.87891 l -17.60156,65.39453 h -3.67578 l -9.78907,-36.35937 -9.79296,36.35937 h -3.66797 l -17.60157,-65.39453 h 3.57813 l 15.80859,58.91406 z m 28.33985,-18.89453 h -29.83985 l 5.07422,18.89453 9.88672,36.54687 z m 0,0"
             style="fill:#000000;fill-opacity:1;fill-rule:nonzero;stroke:none" />
          <path
             id="path936"
             transform="matrix(0.75,0,0,0.75,69.88644,-104.96593)"
             d="m 232.45898,287.04297 -41.17187,89.07226 h 82.34375 z m 189.77149,0 c -6.52083,0.0104 -12.55339,1.62044 -18.07422,4.83398 -5.52084,3.21875 -9.90039,7.58789 -13.11914,13.08789 -3.21875,5.52084 -4.82813,11.53061 -4.82813,18.04102 v 16.52734 c 0,6.44271 1.00977,11.99869 3.00977,16.66016 2.76041,6.60937 7.14193,11.90104 13.12109,15.85937 5.97918,3.96875 12.60939,5.94336 19.89063,5.94336 7.69792,0 14.60936,-2.08268 20.71875,-6.25976 6.10937,-4.17188 10.45703,-9.7194 13.05078,-16.66211 1.58853,-4.17187 2.38086,-8.93164 2.38086,-14.29102 v -8.26172 h -38.28125 v 40.71485 c -5.94271,-0.40104 -11.29166,-2.32292 -16.0625,-5.75 -4.77083,-3.42188 -8.32877,-7.85026 -10.67773,-13.29297 -1.67189,-3.82813 -2.50977,-8.71745 -2.50977,-14.66016 v -16.52734 c 0,-5.67187 1.42774,-10.91015 4.27148,-15.72266 2.84896,-4.79686 6.67578,-8.5996 11.48829,-11.39648 4.80729,-2.79167 10.02213,-4.19246 15.62109,-4.20313 9.63021,0.0104 17.24869,2.93164 22.84765,8.75977 2.26042,2.44271 4.13152,5.16211 5.58985,8.16211 1.46353,3.01041 2.22917,6.04752 2.3125,9.13086 H 457.5 c 0,-3.58334 -0.81121,-7.1198 -2.44141,-10.64063 -1.63021,-3.5 -3.74088,-6.68229 -6.33984,-9.53125 -3.18229,-3.41145 -7.02995,-6.02148 -11.55078,-7.81836 -4.52084,-1.79166 -9.49999,-2.69245 -14.9375,-2.70312 z m 95.82812,0 -41.17187,89.07226 h 82.34375 z m 285.59766,0 -41.16602,89.07226 h 82.33789 z m -510.14063,1.88086 v 87.1914 h 4.64063 61.26172 4.64062 v -87.1914 h -4.64062 v 59.1289 l -61.01172,-59.1289 z m 288.74024,0 v 87.1914 h 67.15039 l -22.21875,-30.9414 c 6.10937,-1.65626 11.17253,-5.06836 15.19336,-10.20899 4.01563,-5.1302 6.01562,-10.95769 6.01562,-17.47851 0,-5.25 -1.24935,-10.05339 -3.75976,-14.40235 -2.50521,-4.33854 -6.01628,-7.76042 -10.53711,-10.28125 -4.59896,-2.57812 -10.55274,-3.86824 -17.83399,-3.8789 z m 93.0625,0 v 87.1914 h 32.25976 c 6.35938,0 12.23959,-1.5729 17.64063,-4.75 5.40104,-3.17186 9.67708,-7.45312 12.85937,-12.84375 3.17709,-5.38021 4.77149,-11.25 4.77149,-17.60937 v -16.78516 c 0,-6.34376 -1.5944,-12.20312 -4.77149,-17.59375 -3.18229,-5.3802 -7.45833,-9.65755 -12.85937,-12.83984 -5.40104,-3.17188 -11.28125,-4.75887 -17.64063,-4.76953 z m -85.16211,4.6289 h 26.24023 c 5.94271,0.0104 10.74935,0.9336 14.43164,2.76172 4.09897,2.02084 7.28256,4.90039 9.54297,8.65039 2.26042,3.76043 3.38477,7.93815 3.38477,12.52149 0,5.78124 -1.83855,10.88021 -5.51563,15.29687 -3.68229,4.4323 -8.33397,7.22266 -13.94335,8.37891 z m 89.8125,0 h 27.48047 c 5.53124,0.0104 10.66016,1.39063 15.3789,4.14063 4.72918,2.76041 8.47983,6.48046 11.24024,11.15234 2.76041,4.67708 4.14062,9.78125 4.14062,15.28125 v 16.78516 c 0,5.52083 -1.38021,10.62109 -4.14062,15.29297 -2.76041,4.68229 -6.51106,8.40039 -11.24024,11.15039 -4.71874,2.76041 -9.84766,4.14152 -15.3789,4.13086 h -27.48047 z m -381.8125,1.38086 61.26172,59.64063 v 16.81501 l -61.26172,-0.10783 z m 288.74023,1.63086 32.25977,44.97852 h -32.25977 z m -354.4375,1.5 33.89063,73.42188 h -67.78125 z m 285.59961,0 33.89063,73.42188 h -67.78125 z m 285.59766,0 33.89063,73.42188 H 769.76562 Z M 424.62109,337.0332 h 29.11914 v 3.75 c 0,4.94271 -0.74933,9.3698 -2.25976,13.28125 -2.26041,5.60938 -5.79167,10.09831 -10.60938,13.47852 -4.81249,3.39061 -10.23437,5.29232 -16.25,5.69336 z m 197.67579,9.01953 18.32421,25.4336 h -53.72461 v -25.3125 h 31.50977 z"
             style="fill:#000000;fill-opacity:1;fill-rule:nonzero;stroke:none;stroke-width:1.33333337" />
        </g>
      </g>
      <circle
         style="fill:#000000;fill-opacity:1;stroke:none;stroke-width:0.38091972;stroke-linecap:butt;stroke-linejoin:miter;stroke-miterlimit:4;stroke-dasharray:none;stroke-opacity:1"
         id="path835"
         cx="54.118305"
         cy="196.29712"
         r="1.3973107" />
      <circle
         r="1.3973107"
         cy="177.74529"
         cx="92.532722"
         id="circle839"
         style="fill:#000000;fill-opacity:1;stroke:none;stroke-width:0.38091972;stroke-linecap:butt;stroke-linejoin:miter;stroke-miterlimit:4;stroke-dasharray:none;stroke-opacity:1" />
      <circle
         style="fill:#000000;fill-opacity:1;stroke:none;stroke-width:0.38091972;stroke-linecap:butt;stroke-linejoin:miter;stroke-miterlimit:4;stroke-dasharray:none;stroke-opacity:1"
         id="circle841"
         cx="97.016251"
         cy="196.20633"
         r="1.3973107" />
      <circle
         r="1.3973107"
         cy="177.23943"
         cx="134.49852"
         id="circle843"
         style="fill:#000000;fill-opacity:1;stroke:none;stroke-width:0.38091972;stroke-linecap:butt;stroke-linejoin:miter;stroke-miterlimit:4;stroke-dasharray:none;stroke-opacity:1" />
      <circle
         style="fill:#000000;fill-opacity:1;stroke:none;stroke-width:0.38091972;stroke-linecap:butt;stroke-linejoin:miter;stroke-miterlimit:4;stroke-dasharray:none;stroke-opacity:1"
         id="circle845"
         cx="148.20299"
         cy="187.6102"
         r="1.3973107" />
      <circle
         r="1.3973107"
         cy="196.34062"
         cx="161.31133"
         id="circle847"
         style="fill:#000000;fill-opacity:1;stroke:none;stroke-width:0.38091972;stroke-linecap:butt;stroke-linejoin:miter;stroke-miterlimit:4;stroke-dasharray:none;stroke-opacity:1" />
      <circle
         style="fill:#000000;fill-opacity:1;stroke:none;stroke-width:0.38091972;stroke-linecap:butt;stroke-linejoin:miter;stroke-miterlimit:4;stroke-dasharray:none;stroke-opacity:1"
         id="circle849"
         cx="205.61539"
         cy="177.69946"
         r="1.3973107" />
      <circle
         r="1.3973107"
         cy="196.19571"
         cx="225.70415"
         id="circle851"
         style="fill:#000000;fill-opacity:1;stroke:none;stroke-width:0.38091972;stroke-linecap:butt;stroke-linejoin:miter;stroke-miterlimit:4;stroke-dasharray:none;stroke-opacity:1" />
      <circle
         r="1.3973107"
         cy="189.5556"
         cx="184.674"
         id="circle853"
         style="fill:#000000;fill-opacity:1;stroke:none;stroke-width:0.38091972;stroke-linecap:butt;stroke-linejoin:miter;stroke-miterlimit:4;stroke-dasharray:none;stroke-opacity:1" />
    </g>
  </g>
</svg>
