<svg viewBox="0 0 100 100" xmlns="http://www.w3.org/2000/svg">
    <rect
		y="0"
		x="0"
		height="100"
		width="100"
		style="fill:#4FC08D" />
    <path
		d="M 77.583841,83.088847 H 25.630401 V 15.50082 H 51.947 q 8.448504,0 13.789516,3.010389 5.243898,2.913278 8.157175,7.962957 2.913279,5.049678 2.913279,11.16756 0,7.574519 -4.661245,13.595294 -4.661243,5.923661 -11.750221,7.865848 z M 31.748282,19.093866 58.161995,55.995371 q 6.506318,-1.359532 10.779125,-6.506317 4.272803,-5.146791 4.272803,-11.847328 0,-5.341006 -2.62195,-9.710922 -2.621949,-4.369916 -7.3803,-6.700537 -4.272807,-2.136401 -11.167559,-2.136401 z m -2.524836,2.330621 v 34.862211 h 24.957069 z m 0,58.071319 H 70.786194 L 56.608244,59.78263 53.597859,59.87972 H 29.223446 Z"
		style="fill:#ffffff" />
</svg>