<?xml version="1.0" encoding="UTF-8" standalone="no"?>
<svg
   xmlns:dc="http://purl.org/dc/elements/1.1/"
   xmlns:cc="http://creativecommons.org/ns#"
   xmlns:rdf="http://www.w3.org/1999/02/22-rdf-syntax-ns#"
   xmlns:svg="http://www.w3.org/2000/svg"
   xmlns="http://www.w3.org/2000/svg"
   id="svg8"
   version="1.1"
   viewBox="0 0 13.630746 13.630746"
   height="13.630746mm"
   width="13.630746mm">
  <defs
     id="defs2" />
  <metadata
     id="metadata5">
    <rdf:RDF>
      <cc:Work
         rdf:about="">
        <dc:format>image/svg+xml</dc:format>
        <dc:type
           rdf:resource="http://purl.org/dc/dcmitype/StillImage" />
        <dc:title></dc:title>
      </cc:Work>
    </rdf:RDF>
  </metadata>
  <g
     transform="translate(-55.425022,-56.691284)"
     id="layer1">
    <rect
       y="56.691284"
       x="55.425022"
       height="13.630746"
       width="13.630746"
       id="rect34"
       style="fill:#37c871;fill-opacity:1;stroke-width:0.26458332" />
    <g
       transform="matrix(0.78242187,0,0,0.78242187,13.426405,13.650813)"
       id="text12"
       style="font-style:normal;font-variant:normal;font-weight:normal;font-stretch:normal;font-size:10.58333302px;line-height:1.25;font-family:'Major Mono Display';-inkscape-font-specification:'Major Mono Display';letter-spacing:0px;word-spacing:0px;fill:#ffffff;fill-opacity:1;stroke:none;stroke-width:0.26458332"
       aria-label="R">
      <path
         id="path14"
         style="font-size:16.93333244px;stroke-width:0.26458332;fill:#ffffff"
         d="m 67.082608,69.458336 h -9.059333 v -11.7856 h 4.588933 q 1.4732,0 2.404534,0.524934 0.9144,0.508 1.4224,1.388533 0.508,0.880533 0.508,1.947333 0,1.3208 -0.8128,2.370667 -0.8128,1.032933 -2.048934,1.3716 z m -7.992533,-11.159066 4.605867,6.434666 q 1.134533,-0.237067 1.8796,-1.134533 0.745066,-0.897467 0.745066,-2.065867 0,-0.931333 -0.4572,-1.693333 -0.4572,-0.762 -1.286933,-1.1684 -0.745067,-0.372533 -1.947333,-0.372533 z m -0.440266,0.4064 v 6.079066 h 4.351866 z m 0,10.126133 h 7.247466 l -2.472267,-3.437467 -0.524933,0.01693 h -4.250266 z" />
    </g>
  </g>
</svg>
