<?xml version="1.0" encoding="UTF-8" standalone="no"?>
<svg
   xmlns:dc="http://purl.org/dc/elements/1.1/"
   xmlns:cc="http://creativecommons.org/ns#"
   xmlns:rdf="http://www.w3.org/1999/02/22-rdf-syntax-ns#"
   xmlns:svg="http://www.w3.org/2000/svg"
   xmlns="http://www.w3.org/2000/svg"
   id="svg6"
   version="1.1"
   viewBox="0 0 100 100">
  <metadata
     id="metadata12">
    <rdf:RDF>
      <cc:Work
         rdf:about="">
        <dc:format>image/svg+xml</dc:format>
        <dc:type
           rdf:resource="http://purl.org/dc/dcmitype/StillImage" />
        <dc:title></dc:title>
      </cc:Work>
    </rdf:RDF>
  </metadata>
  <defs
     id="defs10" />
  <rect
     id="rect2"
     style="fill:#4FC08D"
     width="100"
     height="100"
     x="0"
     y="0" />
  <path
     id="path4"
     style="fill:#ffffff;stroke-width:1;stroke-miterlimit:4;stroke-dasharray:none;stroke:#ffffff;stroke-opacity:1"
     d="M 72.930333,78.022814 H 27.69023 V 19.168397 h 22.916014 c 4.904533,0 8.907085,0.873796 12.007656,2.62139 3.044194,1.69122 5.4119,4.002552 7.10312,6.933997 1.691223,2.931444 2.536834,6.172947 2.536834,9.724506 0,4.39717 -1.35298,8.343348 -4.058932,11.838534 -2.705951,3.438812 -6.116575,5.721956 -10.231875,6.849439 z M 33.017569,22.297155 56.018147,54.43031 c 3.777055,-0.789239 6.90581,-2.677765 9.386266,-5.66558 2.48045,-2.987819 3.720678,-6.426634 3.720678,-10.31644 0,-3.100566 -0.761049,-5.919264 -2.283147,-8.456093 -1.522096,-2.536827 -3.664308,-4.48173 -6.42663,-5.834703 -2.480454,-1.240228 -5.721956,-1.860339 -9.724506,-1.860339 z m -2.19858,2.029462 V 74.894059 H 67.01107 Z" />
</svg>
